 http://desibbrg.org/images/66952052392581364616.gif
 
http://desibbrg.org/images/21300623178288014989.jpg
 
http://desibbrg.org/images/44231006401416728773.png
 
http://desibbrg.org/images/67736321117829151639.png
 
http://desibbrg.org/images/13181931422185612245.png
 
http://desibbrg.org/images/59811031259290488284.png

Media Info - 
Video
ID : 0
Format : MPEG-4 Visual
Format profile : Simple@L1
Format settings, BVOP : No
Format settings, QPel : No
Format settings, GMC : No warppoints
Format settings, Matrix : Default (H.263)
Codec ID : DIVX
Codec ID/Info : Project Mayo
Codec ID/Hint : DivX 4
Duration : 1h 38mn
Bit rate : 1 499 Kbps
Width : 1 360 pixels
Height : 762 pixels
Display aspect ratio : 16:9
Frame rate : 29.970 fps
Color space : YUV
Chroma subsampling : 4:2:0
Bit depth : 8 bits
Scan type : Progressive
Compression mode : Lossy
Bits/(Pixel*Frame) : 0.048
Stream size : 1.03 GiB (91%)
Writing library : Lavc52.108.0

Audio
ID : 1
Format : MPEG Audio
Format version : Version 1
Format profile : Layer 3
Mode : Joint stereo
Mode extension : MS Stereo
Codec ID : 55
Codec ID/Hint : MP3
Duration : 1h 38mn
Bit rate mode : Constant
Bit rate : 128 Kbps
Channel(s) : 2 channels
Sampling rate : 44.1 KHz
Compression mode : Lossy
Stream size : 89.9 MiB (8%)
Alignment : Aligned on interleaves
Interleave, duration : 26 ms (0.78 video frame)
Interleave, preload duration : 52 ms
Writing library : LAME3.98.4

Ripper : black_pearl

Seeding 24x7... Extreme Seeding...


Enjoy!
